        In the Time of the Butterflies 2001 DVDRip Xvid LKRG


RIPPER                           : fasamoo
Format                           : AVI
Format/Info                      : Audio Video Interleave
File size                        : 700 MiB
Duration                         : 1h 31mn
Overall bit rate                 : 1 065 Kbps
Writing application              : VirtualDubMod 1.5.4.1 (build 2178/release)
Writing library                  : VirtualDubMod build 2178/release
Language                         : English
Subtitles                        : English(*.srt)
                                   English, French, Spanish                                                (*.idx,*.sub)
Genre                            : Drama | Romance | Crime

Video
ID                               : 0
Format                           : MPEG-4 Visual
Format profile                   : Advanced Simple@L5
Format settings, BVOP            : Yes
Format settings, QPel            : No
Format settings, GMC             : No warppoints
Format settings, Matrix          : Custom
Codec ID                         : XVID
Codec ID/Hint                    : XviD
Duration                         : 1h 31mn
Bit rate                         : 941 Kbps
Width                            : 512 pixels
Height                           : 400 pixels
Display aspect ratio             : 1.280
Frame rate                       : 23.976 fps
Color space                      : YUV
Chroma subsampling               : 4:2:0
Bit depth                        : 8 bits
Scan type                        : Progressive
Bits/(Pixel*Frame)               : 0.192
Stream size                      : 618 MiB (88%)
Writing library                  : XviD 1.2.1 (UTC 2008-12-04)

Audio
ID                               : 1
Format                           : MPEG Audio
Format version                   : Version 1
Format profile                   : Layer 3
Mode                             : Joint stereo
Codec ID                         : 55
Codec ID/Hint                    : MP3
Duration                         : 1h 31mn
Bit rate mode                    : Variable
Bit rate                         : 112 Kbps
Channel(s)                       : 2 channels
Sampling rate                    : 48.0 KHz
Stream size                      : 73.6 MiB (11%)
Alignment                        : Aligned on interleaves
Interleave, duration             : 24 ms (0.58 video frame)
Interleave, preload duration     : 144 ms
Writing library                  : LAME3.98.2

                                 PLOT

On November 25, 1960, the bodies of three sisters were found near the bottom of a cliff on the north coast of the Dominican Republic. The official daily 'El Caribe' reports that it had been an accident, but it does not mention that a fourth sister lives. Nor does it mention the sisters' fierce opposition to the General Trujillo's dictatorship. This is their story: how Minerva started the tragedy by refusing Trujillo; how Patria became an opponent from the church itself; how Maria Teresa joined the revolution through the love. And how they lost their wings, but not their courage. They were Las Mariposas - "The Butterflies". 

  







                                 IMBD
                     
                    http://www.imdb.com/title/tt0263467/
 
http://leetleech.org/images/42766500678095966045.png 
http://leetleech.org/images/99021767144554118389.png 
http://leetleech.org/images/41469140027896463713.png 
http://leetleech.org/images/06606216352294012252.png 
http://leetleech.org/images/30805454236889454691.png 
http://leetleech.org/images/69007061256341834670.png 
http://leetleech.org/images/61325561908662107441.png 
http://leetleech.org/images/22581093642399236889.png

